<svg version="1.1" id="Layer_1" xmlns="http://www.w3.org/2000/svg" xmlns:xlink="http://www.w3.org/1999/xlink" x="0px" y="0px"
	 width="100%" viewBox="0 0 304 272" enable-background="new 0 0 304 272" xml:space="preserve">
<path fill="#000000" opacity="1.000000" stroke="none" 
	d="
M95.024277,261.027618 
	C93.822769,259.152405 92.262901,259.883240 90.597054,260.257477 
	C82.474380,262.082153 75.189148,257.174866 74.102295,249.251633 
	C73.030174,241.435822 79.093666,234.393707 87.114952,234.138794 
	C94.560043,233.902191 100.869682,240.528091 100.144012,248.542068 
	C99.819328,252.127762 101.110947,253.177200 104.143829,253.992035 
	C111.876938,256.069611 118.634300,253.750244 125.019371,249.728577 
	C131.541031,245.620850 137.142181,240.394333 142.546646,234.925308 
	C144.376617,233.073456 144.489487,231.480499 143.469223,229.176331 
	C135.122589,210.325912 131.924316,190.345078 130.916916,169.941833 
	C130.754044,166.643112 129.707062,164.925232 126.826263,162.923553 
	C97.982491,142.881638 74.133308,118.596863 65.386391,83.272697 
	C57.585335,51.768353 79.040932,24.271996 111.454529,23.177233 
	C116.569946,23.004461 121.738663,23.786987 126.775650,25.066975 
	C130.464035,26.004261 133.684860,27.186615 138.079803,25.498089 
	C141.758423,24.084768 147.187149,26.256054 150.561432,29.115141 
	C154.361633,32.335102 150.514603,35.852333 149.080994,38.928684 
	C147.840790,41.590008 145.357666,41.503834 143.141876,39.924297 
	C139.686447,37.461071 135.883408,35.766125 132.833496,32.351540 
	C129.515823,28.637205 123.737694,29.358137 119.075058,29.766504 
	C87.010902,32.574802 69.873909,60.366360 80.314377,90.965141 
	C89.078339,116.650444 105.192062,136.653915 125.646187,153.682556 
	C131.565735,158.610764 138.393250,160.374054 145.747971,157.749527 
	C171.301453,148.630814 192.394058,133.607956 206.912811,110.284439 
	C215.711716,96.149506 218.830795,80.777924 215.727615,64.321442 
	C212.674408,48.129929 198.231918,36.368454 181.867432,36.570351 
	C180.838165,36.583050 179.645981,36.492699 179.161102,37.447327 
	C176.536438,42.614670 171.000504,42.016632 166.693344,43.664341 
	C162.915909,45.109409 161.730026,42.026764 161.264618,39.036602 
	C160.776886,35.903008 159.064651,31.672520 163.948395,30.903833 
	C168.774124,30.144276 174.051041,27.768431 178.644989,32.232834 
	C179.726318,33.283669 181.523972,32.457321 182.999603,32.227497 
	C208.769058,28.214052 233.262985,45.593998 230.661316,77.770439 
	C228.558975,103.771095 213.736679,122.330353 194.344101,138.015656 
	C179.260117,150.216034 162.392303,159.036774 143.759583,164.429001 
	C140.885651,165.260712 139.044464,166.340622 139.330841,169.842972 
	C140.758698,187.304703 143.031784,204.584366 149.427368,221.058273 
	C149.963531,222.439362 150.338577,223.936050 151.952667,225.171997 
	C156.295547,221.520187 160.603287,217.682922 165.135666,214.132446 
	C174.010406,207.180374 183.602737,201.741501 194.934631,199.672897 
	C220.962051,194.921631 239.138016,216.864944 235.841858,240.491226 
	C233.762909,255.392807 223.807983,263.979950 207.680664,266.355957 
	C183.143478,269.970917 163.875534,261.757507 149.659683,240.670120 
	C145.418884,244.374405 141.412231,248.004272 137.266937,251.468231 
	C128.364548,258.907410 118.755081,264.517090 106.473610,263.388397 
	C102.775536,263.048523 99.336594,261.785461 95.368546,261.040833 
	C94.987183,260.998535 95.024277,261.027618 95.024277,261.027618 
M179.344650,214.858368 
	C171.719116,219.424576 165.249268,225.439743 158.623825,231.273270 
	C156.451935,233.185577 156.181335,234.930283 157.912048,237.259018 
	C160.798141,241.142334 163.709427,244.989120 167.461700,248.093994 
	C179.030930,257.667175 192.260391,260.080170 206.859970,257.785919 
	C219.515549,255.797150 227.306366,248.299683 227.663773,236.810486 
	C228.091629,223.056412 219.582458,210.722870 208.050446,208.310699 
	C197.754974,206.157166 188.711029,209.613678 179.344650,214.858368 
z"/>
<path fill="#000000" opacity="1.000000" stroke="none" 
	d="
M84.634521,91.780411 
	C86.012291,89.233215 88.184952,89.763626 90.113518,89.749664 
	C97.610481,89.695389 105.107971,89.710220 112.605270,89.711601 
	C114.651901,89.711983 116.667351,89.725037 117.578072,87.331459 
	C118.289642,85.461327 118.925743,83.226517 121.389328,83.304459 
	C124.238892,83.394615 124.164177,86.213799 125.057610,88.065903 
	C125.398285,88.772133 125.619492,89.535988 126.817078,90.318497 
	C128.139694,83.406525 129.283432,76.453072 130.871948,69.602753 
	C131.518112,66.816254 130.610519,62.188858 134.978668,62.155411 
	C139.182785,62.123219 138.224106,66.611900 138.751770,69.246750 
	C141.812668,84.531166 144.621063,99.866150 148.508591,115.196045 
	C149.897781,107.978882 151.436676,100.785957 152.611069,93.534012 
	C153.172241,90.068672 154.773224,88.652504 158.228836,88.669060 
	C173.223038,88.740891 188.217773,88.695702 203.212326,88.708344 
	C205.289383,88.710091 207.614838,88.911118 207.701416,91.530655 
	C207.804794,94.658051 205.246948,94.321815 203.028107,94.504585 
	C189.549164,95.614868 176.064728,94.015411 162.578156,94.646973 
	C159.661972,94.783531 158.492035,95.469620 157.966125,98.352501 
	C155.906326,109.643555 153.617111,120.892746 151.412460,132.157364 
	C150.996658,134.281952 150.828781,136.868042 147.946472,136.838120 
	C145.118393,136.808777 144.904846,134.298828 144.494308,132.131042 
	C141.586517,116.776978 138.649826,101.428375 135.713196,86.079788 
	C135.565918,85.309990 135.334091,84.556374 134.418350,83.771179 
	C133.098831,90.349693 131.780533,96.928452 130.459076,103.506584 
	C130.065552,105.465462 129.893677,107.815849 127.290482,107.918999 
	C124.783775,108.018326 124.166809,105.859833 123.627670,103.875023 
	C123.278526,102.589622 122.853661,101.323135 122.546669,100.028267 
	C121.835510,97.028610 120.247856,95.841270 116.914215,95.897125 
	C107.594986,96.053276 98.267723,95.747391 88.943962,95.602577 
	C86.622650,95.566521 84.525368,95.167496 84.634521,91.780411 
z"/>
<path fill="#000000" opacity="1.000000" stroke="none" 
	d="
M94.967171,260.986023 
	C96.038589,261.952667 97.130020,262.931824 98.207245,263.898254 
	C93.415527,270.319580 81.492928,268.725983 75.758110,264.928986 
	C67.589134,259.520325 64.298691,248.497421 68.202065,239.263062 
	C72.121414,229.990891 81.600006,225.014984 91.430916,227.068787 
	C101.214363,229.112640 108.456970,238.109589 108.105537,247.950882 
	C108.033188,249.976776 108.450043,252.835327 105.252060,252.797256 
	C102.052139,252.759186 102.664078,250.122757 102.600540,247.956924 
	C102.393593,240.902084 97.407959,234.422394 90.996101,232.685410 
	C85.234962,231.124725 78.369843,233.774109 74.773636,238.945984 
	C71.024239,244.338104 71.024483,251.358093 75.271675,256.632874 
	C80.335594,262.921997 86.978249,263.576355 94.628845,261.044922 
	C95.024277,261.027618 94.987183,260.998535 94.967171,260.986023 
z"/>
</svg>